<svg version="1.1" viewBox="0.0 0.0 100.0 100.0" fill="none" stroke="none" stroke-linecap="square" stroke-miterlimit="10" xmlns:xlink="http://www.w3.org/1999/xlink" xmlns="http://www.w3.org/2000/svg"><clipPath id="p.0"><path d="m0 0l100.0 0l0 100.0l-100.0 0l0 -100.0z" clip-rule="nonzero"/></clipPath><g clip-path="url(#p.0)"><path fill="#000000" fill-opacity="0.0" d="m0 0l100.0 0l0 100.0l-100.0 0z" fill-rule="evenodd"/><path fill="#000000" fill-opacity="0.0" d="m5.03937 50.0l0 0c0 -24.083094 20.12956 -43.6063 44.96063 -43.6063l0 0c11.924301 0 23.360214 4.594222 31.79197 12.771989c8.431747 8.177769 13.168663 19.269201 13.168663 30.83431l0 0c0 24.083092 -20.129562 43.6063 -44.960632 43.6063l0 0c-24.83107 0 -44.96063 -19.523209 -44.96063 -43.6063z" fill-rule="evenodd"/><path stroke="#4a86e8" stroke-width="8.0" stroke-linejoin="round" stroke-linecap="butt" stroke-dasharray="8.0,24.0" d="m5.03937 50.0l0 0c0 -24.083094 20.12956 -43.6063 44.96063 -43.6063l0 0c11.924301 0 23.360214 4.594222 31.79197 12.771989c8.431747 8.177769 13.168663 19.269201 13.168663 30.83431l0 0c0 24.083092 -20.129562 43.6063 -44.960632 43.6063l0 0c-24.83107 0 -44.96063 -19.523209 -44.96063 -43.6063z" fill-rule="evenodd"/><path fill="#000000" fill-opacity="0.0" d="m3.1653543 22.535433l93.6693 0l0 54.92914l-93.6693 0z" fill-rule="evenodd"/><path fill="#000000" d="m25.009104 46.757935l-5.125 0l0 -1.03125q0 -1.3125 -0.15625 -1.65625q-0.140625 -0.359375 -0.75 -0.359375q-0.484375 0 -0.734375 0.328125q-0.234375 0.3125 -0.234375 0.96875q0 0.875 0.125 1.28125q0.125 0.40625 0.71875 0.890625q0.609375 0.484375 2.5 1.421875q2.53125 1.234375 3.3125 2.3125q0.796875 1.09375 0.796875 3.171875q0 2.3125 -0.609375 3.5q-0.59375 1.171875 -2.015625 1.8125q-1.40625 0.640625 -3.390625 0.640625q-2.21875 0 -3.781249 -0.6875q-1.5625 -0.6875 -2.15625 -1.859375q-0.578125 -1.171875 -0.578125 -3.546875l0 -0.921875l5.124999 0l0 1.203125q0 1.53125 0.1875 2.0q0.1875 0.453125 0.765625 0.453125q0.609375 0 0.859375 -0.3125q0.25 -0.3125 0.25 -1.296875q0 -1.359375 -0.328125 -1.703125q-0.328125 -0.34375 -3.359375 -2.03125q-2.546874 -1.4375 -3.109374 -2.59375q-0.5625 -1.171875 -0.5625 -2.78125q0 -2.28125 0.59375 -3.359375q0.609375 -1.078125 2.046875 -1.65625q1.453124 -0.59375 3.359374 -0.59375q1.890625 0 3.203125 0.484375q1.328125 0.46875 2.03125 1.265625q0.71875 0.78125 0.859375 1.453125q0.15625 0.671875 0.15625 2.109375l0 1.09375zm7.773592 -10.25l0 5.21875q0.75 -0.6875 1.609375 -1.03125q0.875 -0.34375 1.859375 -0.34375q1.515625 0 2.578125 0.78125q1.078125 0.765625 1.3125 1.78125q0.234375 1.0 0.234375 3.671875l0 13.109375l-5.78125 0l0 -13.375q0 -1.65625 -0.171875 -2.125q-0.15625 -0.484375 -0.734375 -0.484375q-0.53125 0 -0.71875 0.5q-0.1875 0.484375 -0.1875 1.921875l0 13.5625l-5.781252 0l0 -23.1875l5.781252 0zm22.725143 4.1875l0 14.625q0 2.96875 -0.140625 3.84375q-0.125 0.859375 -0.953125 1.828125q-0.828125 0.96875 -2.3125 1.46875q-1.484375 0.515625 -3.734375 0.515625q-2.765625 0 -4.4375 -0.9375q-1.671875 -0.9375 -1.734375 -3.6875l5.609375 0q0 1.265625 0.921875 1.265625q0.65625 0 0.875 -0.390625q0.21875 -0.390625 0.21875 -1.625l0 -1.421875q-0.75 0.671875 -1.578125 1.015625q-0.8125 0.34375 -1.71875 0.34375q-1.5625 0 -2.578125 -0.625q-1.0 -0.640625 -1.375 -1.65625q-0.375 -1.03125 -0.375 -2.921875l0 -6.90625q0 -2.703125 0.96875 -3.890625q0.984375 -1.1875 2.96875 -1.1875q1.09375 0 1.984375 0.453125q0.890625 0.4375 1.59375 1.3125l0.421875 -1.421875l5.375 0zm-5.796875 5.03125q0 -1.296875 -0.15625 -1.65625q-0.140625 -0.359375 -0.65625 -0.359375q-0.5 0 -0.71875 0.40625q-0.203125 0.40625 -0.203125 1.609375l0 6.390625q0 1.28125 0.15625 1.65625q0.15625 0.375 0.65625 0.375q0.578125 0 0.75 -0.453125q0.171875 -0.453125 0.171875 -2.078125l0 -5.890625zm20.958233 1.640625l0 4.65625q0 2.5625 -0.265625 3.765625q-0.25 1.1875 -1.09375 2.234375q-0.84375 1.03125 -2.171875 1.53125q-1.328125 0.484375 -3.046875 0.484375q-1.9218712 0 -3.2499962 -0.421875q-1.328125 -0.421875 -2.078125 -1.265625q-0.734375 -0.859375 -1.046875 -2.0625q-0.3125 -1.21875 -0.3125 -3.640625l0 -4.875q0 -2.640625 0.5625 -4.125q0.578125 -1.5 2.0625 -2.390625q1.5 -0.90625 3.8125 -0.90625q1.9531212 0 3.3437462 0.578125q1.40625 0.578125 2.15625 1.515625q0.765625 0.921875 1.046875 1.921875q0.28125 0.984375 0.28125 3.0zm-5.796875 -1.4375q0 -1.453125 -0.15625 -1.828125q-0.15625 -0.390625 -0.671875 -0.390625q-0.5156212 0 -0.6874962 0.390625q-0.171875 0.375 -0.171875 1.828125l0 8.578125q0 1.34375 0.171875 1.765625q0.171875 0.40625 0.6718712 0.40625q0.515625 0 0.671875 -0.375q0.171875 -0.375 0.171875 -1.609375l0 -8.765625zm19.649689 -5.234375l-2.703125 19.0l-7.546875 0l-2.90625 -19.0l5.171875 0l1.609375 13.859375q0.1875 -1.515625 0.640625 -7.453125q0.25 -3.296875 0.5625 -6.40625l5.171875 0z" fill-rule="nonzero"/></g></svg>